<svg width="34" height="34" fill="none" xmlns="http://www.w3.org/2000/svg"><path d="M24.369 8.084c0-.974.79-1.763 1.765-1.763a1.764 1.764 0 110 3.525 1.764 1.764 0 01-1.765-1.762z" fill="#B9B9B9"/><path fill-rule="evenodd" clip-rule="evenodd" d="M17.308 8.524c-4.63 0-8.384 3.748-8.384 8.37 0 4.624 3.753 8.372 8.384 8.372 4.63 0 8.384-3.748 8.384-8.371s-3.753-8.37-8.384-8.37zm-5.737 8.37a5.732 5.732 0 015.737-5.726 5.732 5.732 0 015.737 5.727 5.732 5.732 0 01-5.737 5.727 5.732 5.732 0 01-5.737-5.727z" fill="#B9B9B9"/><path fill-rule="evenodd" clip-rule="evenodd" d="M26.59.74a84.372 84.372 0 00-18.564 0c-3.551.397-6.418 3.19-6.836 6.754a80.794 80.794 0 000 18.802c.418 3.564 3.285 6.357 6.836 6.753a84.368 84.368 0 0018.564 0c3.551-.396 6.418-3.19 6.836-6.753a80.796 80.796 0 000-18.802C33.008 3.93 30.14 1.137 26.59.74zM8.32 3.367a81.72 81.72 0 0117.976 0c2.347.262 4.228 2.112 4.5 4.434a78.157 78.157 0 010 18.188c-.272 2.322-2.153 4.171-4.5 4.433a81.716 81.716 0 01-17.975 0c-2.348-.262-4.229-2.111-4.501-4.433a78.154 78.154 0 010-18.188c.272-2.322 2.153-4.172 4.5-4.434z" fill="#B9B9B9"/></svg>