<svg width="37" height="34" fill="none" xmlns="http://www.w3.org/2000/svg"><path d="M36.058 1.21a2.65 2.65 0 00-1.292-.612 2.621 2.621 0 00-1.417.153L2.666 13.074a2.64 2.64 0 00-1.298 1.095 2.734 2.734 0 00-.381 1.675c.05.586.284 1.14.668 1.578a2.65 2.65 0 001.46.853l7.795 1.58v9.96c0 .539.156 1.066.449 1.514.293.447.71.796 1.197 1.002a2.616 2.616 0 002.031-.002c.323-.137.615-.339.86-.593l4.322-4.402 6.532 5.88a2.626 2.626 0 001.746.68c.282.006.564-.04.83-.136a2.636 2.636 0 001.146-.744c.312-.346.53-.769.633-1.227l6.25-27.908a2.765 2.765 0 00-.848-2.669zM11.924 17.29l-8.278-1.683 23.204-9.33L11.924 17.29zm1.645 12.526V21.76l4.189 3.773-4.189 4.283zm14.494 1.36L14.367 18.852l19.73-14.565-6.034 26.888z" fill="#B9B9B9"/></svg>