<svg width="37" height="40" fill="none" xmlns="http://www.w3.org/2000/svg"><path d="M18.025.898c-3.043.042-9.59.551-13.251 3.971-2.719 2.755-3.669 6.817-3.78 11.847C.9 21.726.79 31.136 9.688 33.699v3.899s-.06 1.562.952 1.885c1.248.403 1.96-.804 3.145-2.093l2.213-2.546c6.085.516 10.747-.675 11.285-.852 1.233-.403 8.188-1.307 9.326-10.717 1.17-9.717-.569-15.839-3.698-18.61l-.016-.003c-.949-.886-4.742-3.706-13.23-3.738 0 0-.626-.04-1.64-.026zm.106 2.734c.86-.005 1.39.032 1.39.032 7.176.016 10.607 2.224 11.413 2.965 2.64 2.302 3.996 7.823 3.003 15.937-.948 7.862-6.59 8.362-7.634 8.7-.442.145-4.552 1.176-9.723.838 0 0-3.855 4.738-5.056 5.962-.19.21-.411.274-.553.242-.206-.048-.269-.306-.253-.66l.031-6.476C3.21 29.046 3.651 21.02 3.73 16.83c.095-4.188.87-7.623 3.161-9.943 3.094-2.852 8.654-3.239 11.238-3.255h.002zm.569 4.189a.465.465 0 00-.336.14.483.483 0 00-.139.342c0 .128.05.25.14.342a.47.47 0 00.335.141 8.75 8.75 0 013.436.632 8.883 8.883 0 012.933 1.93c1.723 1.707 2.562 3.995 2.594 6.992a.49.49 0 00.292.447c.058.024.12.036.182.036v-.014a.47.47 0 00.335-.142.488.488 0 00.139-.341 10.576 10.576 0 00-.657-4.135 10.421 10.421 0 00-2.204-3.534c-1.88-1.87-4.255-2.836-7.052-2.836h.002zm-6.25 1.112a1.486 1.486 0 00-.972.193h-.019a7.53 7.53 0 00-1.814 1.514c-.427.516-.666 1.03-.729 1.53-.037.292-.01.59.08.871l.03.016a22.31 22.31 0 001.897 4.189 24.764 24.764 0 003.667 5.109l.048.064.063.049.047.048.048.048a24.688 24.688 0 005.026 3.754c2.086 1.16 3.354 1.708 4.112 1.934v.016c.221.064.424.096.63.096a2.881 2.881 0 001.741-.76 7.252 7.252 0 001.47-1.85v-.016c.363-.692.237-1.355-.285-1.806a21.557 21.557 0 00-3.398-2.48c-.806-.452-1.628-.178-1.96.273l-.71.917c-.364.45-1.028.386-1.028.386l-.02.017c-4.93-1.29-6.242-6.379-6.242-6.379s-.063-.693.395-1.047l.885-.725c.427-.355.727-1.192.269-2.014a21.775 21.775 0 00-2.434-3.464 1.328 1.328 0 00-.797-.483zm7.07 1.434a.47.47 0 00-.335.142.488.488 0 00.002.684c.09.09.21.14.336.14a5.922 5.922 0 014.188 1.853 5.663 5.663 0 011.123 1.924 5.74 5.74 0 01.3 2.217c0 .127.05.25.14.34a.47.47 0 00.334.141l.016.02a.466.466 0 00.336-.142.482.482 0 00.138-.343c.047-1.918-.537-3.529-1.691-4.818-1.154-1.288-2.766-2.013-4.82-2.158a.46.46 0 00-.067 0zm.774 2.608a.475.475 0 00-.345.134.491.491 0 00-.152.344.5.5 0 00.132.352.484.484 0 00.337.154c1.565.08 2.323.886 2.418 2.546a.488.488 0 00.144.331.47.47 0 00.33.136h.016a.467.467 0 00.337-.158.484.484 0 00.121-.357c-.11-2.16-1.264-3.37-3.319-3.482h-.019z" fill="#B9B9B9"/></svg>