<svg width="60" height="41" fill="none" xmlns="http://www.w3.org/2000/svg"><path d="M.09 6.442c0-2.248 1.54-3.136 3.433-3.254l8.816.059c.533 0 1.006.355 1.184.888 2.012 6.508 4.497 10.532 7.455 15.088.178.355.474.533.77.533.236 0 .473-.118.65-.414l.178-.651.06-10.237c0-1.48-.71-1.716-2.368-1.953-.65-.118-1.065-.71-1.065-1.301 0-.119 0-.237.06-.355.828-2.545 3.431-3.846 7.1-3.846l3.314-.06c2.721 0 5.207 1.184 5.207 4.675v13.432c.236.177.473.296.769.296.473 0 1.065-.296 1.538-1.065 3.077-4.32 6.569-9.468 7.042-12.19 0-.118.059-.177.118-.296.651-1.301 2.308-2.189 3.018-2.426.118-.059.296-.118.532-.118h9.172l.592.06c.887 0 1.538.59 1.834 1.123.533.829.414 1.716.473 2.071v.415c-.887 5.384-7.04 11.42-9.645 15.325-.355.474-.532.888-.532 1.302 0 .355.177.71.473 1.065l8.64 10.887c.473.651.71 1.42.71 2.072 0 1.952-1.835 3.077-3.61 3.254l-1.006.06h-8.994c-.178 0-.296.058-.473.058-1.006 0-1.835-.532-2.426-1.124-1.894-2.308-3.728-4.674-5.563-6.982-.355-.474-.473-.533-.828-.77-.414 1.717-.77 3.492-1.183 5.267l-.178 1.006c-.296 1.065-1.065 2.19-2.485 2.485l-.828.06h-5.8C16.009 40.88 6.837 26.323.388 8.157A5.212 5.212 0 01.09 6.442zm35.563 15.326c-1.538 0-3.255-.888-3.255-2.545V5.613c0-1.597-.71-2.188-2.662-2.188l-3.373.118c-1.893 0-2.959.296-3.846.887 1.36.651 2.603 1.539 2.603 4.024v10.414c-.177 2.071-1.893 3.432-3.55 3.432-1.124 0-2.13-.65-2.722-1.716-2.662-4.023-4.911-7.81-6.864-13.254l-.532-1.539-7.87-.059c-1.065 0-.947.06-.947.592 0 .355.06.828.119 1.124l1.242 3.314c6.45 16.686 14.556 27.633 22.249 27.633h5.917c.828 0 .77-1.006.947-1.598l1.124-5.207c.236-.532.414-1.006.828-1.42.474-.473 1.006-.65 1.539-.65 1.124 0 2.189.887 2.9 1.715l5.029 6.39c.414.652.769.77 1.006.77h9.763c.947 0 1.775-.296 1.775-.888 0-.177-.06-.414-.177-.591l-8.58-10.71c-.71-.888-1.006-1.776-1.006-2.663 0-.947.355-1.894.947-2.722 2.485-3.728 7.81-9.053 9.053-13.432l.177-.77c-.059-.295-.059-.532-.118-.828h-9.29a3.23 3.23 0 00-1.42 1.065l-.355 1.125c-1.361 3.787-5.089 8.994-7.752 12.603-.887.829-1.893 1.184-2.899 1.184z" fill="#B9B9B9"/></svg>